<?xml version="1.0" standalone="no"?>
<!DOCTYPE svg PUBLIC "-//W3C//DTD SVG 20010904//EN"
 "http://www.w3.org/TR/2001/REC-SVG-20010904/DTD/svg10.dtd">
<svg version="1.0" xmlns="http://www.w3.org/2000/svg"
 width="600.000000pt" height="600.000000pt" viewBox="0 0 600.000000 600.000000"
 preserveAspectRatio="xMidYMid meet">
<metadata>
Created by potrace 1.14, written by Peter Selinger 2001-2017
</metadata>
<g transform="translate(0.000000,600.000000) scale(0.100000,-0.100000)"
fill="#000000" stroke="none">
<path d="M2785 5540 c-22 -4 -67 -10 -100 -14 -85 -9 -127 -15 -147 -22 -10
-3 -30 -7 -45 -10 -89 -16 -364 -103 -458 -146 -28 -12 -56 -23 -63 -24 -8 -1
-21 -9 -30 -17 -10 -7 -33 -20 -52 -27 -19 -8 -50 -22 -67 -32 -142 -79 -160
-89 -273 -169 -95 -66 -140 -102 -190 -149 -15 -14 -47 -41 -71 -61 -62 -51
-134 -125 -201 -205 -69 -83 -158 -201 -158 -209 0 -3 -24 -43 -53 -88 -71
-108 -148 -244 -152 -267 0 -3 -10 -23 -22 -45 -21 -41 -91 -241 -99 -284 -3
-14 -7 -28 -10 -33 -3 -4 -7 -17 -9 -28 -2 -12 -13 -53 -24 -93 -20 -74 -36
-185 -46 -317 -3 -41 -8 -88 -10 -105 -16 -116 -26 -329 -17 -348 2 -5 6 -29
8 -55 8 -107 23 -232 28 -241 3 -4 7 -25 10 -47 4 -23 11 -55 16 -72 5 -18 6
-32 3 -32 -3 0 -1 -6 4 -12 6 -7 16 -38 23 -68 7 -30 17 -61 23 -67 5 -7 6
-13 2 -13 -4 0 -3 -6 3 -12 5 -7 13 -29 17 -48 4 -19 12 -41 17 -47 6 -7 8
-13 5 -13 -9 0 60 -159 114 -265 33 -64 166 -270 190 -295 8 -8 26 -33 41 -55
16 -22 40 -54 55 -72 16 -17 39 -46 53 -64 26 -34 105 -113 183 -184 79 -72
170 -150 191 -164 12 -8 23 -17 26 -20 10 -11 98 -71 105 -71 3 0 15 -8 26
-19 19 -17 206 -124 259 -147 14 -6 50 -23 80 -37 105 -49 271 -109 340 -123
13 -3 29 -9 35 -13 9 -8 33 -13 110 -26 16 -3 39 -8 50 -12 11 -4 29 -8 40 -9
22 -2 68 -9 155 -25 44 -7 263 -22 315 -21 116 3 290 16 360 28 50 9 101 17
115 19 14 2 36 6 50 10 14 3 34 8 45 10 22 4 131 34 155 43 8 3 22 6 31 8 41
9 313 120 379 156 160 87 197 108 250 140 52 31 73 46 170 123 21 17 53 41 71
55 57 42 313 289 372 358 15 17 27 36 27 42 0 5 4 10 9 10 9 0 123 167 157
230 10 19 21 37 24 40 11 11 61 110 89 176 16 38 47 111 69 162 22 50 38 92
35 92 -3 0 -1 6 5 13 6 7 13 24 16 37 3 14 8 36 11 50 4 14 11 43 15 65 5 22
12 51 15 65 8 33 15 77 21 120 2 19 7 42 10 50 3 8 7 33 9 55 2 22 7 72 11
110 8 81 8 320 0 415 -3 36 -8 97 -11 135 -13 184 -82 471 -164 680 -17 44
-36 88 -42 99 -38 65 -49 88 -49 96 0 5 -18 39 -40 75 -22 36 -40 69 -40 74 0
4 -11 20 -25 35 -14 15 -25 29 -25 32 0 5 -65 108 -80 127 -144 180 -221 263
-319 347 -35 30 -74 64 -86 75 -51 46 -85 71 -175 132 -52 35 -100 68 -107 73
-7 6 -15 10 -19 10 -3 0 -18 9 -33 19 -32 23 -280 150 -301 155 -17 3 -53 18
-113 45 -35 16 -62 25 -107 36 -3 1 -12 4 -20 8 -8 3 -44 14 -80 25 -57 18
-88 25 -165 38 -11 2 -40 8 -65 14 -25 6 -72 13 -105 16 -33 3 -89 9 -125 14
-77 11 -397 11 -455 0z m-605 -1771 c0 -5 -4 -9 -10 -9 -5 0 -10 -11 -10 -24
0 -42 -49 -76 -111 -76 -19 0 -40 -10 -59 -29 -17 -16 -46 -32 -64 -35 -51
-10 -58 -25 -60 -129 -2 -51 -7 -101 -13 -111 -10 -18 -11 -18 -23 4 -7 12
-12 46 -11 74 1 28 2 67 2 86 0 19 7 55 15 80 12 38 21 48 62 68 26 12 60 30
76 38 15 9 55 21 87 27 33 7 59 15 59 19 0 3 7 13 15 22 16 15 45 12 45 -5z"/>
</g>
</svg>
