<?xml version="1.0" standalone="no"?>
<!DOCTYPE svg PUBLIC "-//W3C//DTD SVG 20010904//EN"
 "http://www.w3.org/TR/2001/REC-SVG-20010904/DTD/svg10.dtd">
<svg version="1.0" xmlns="http://www.w3.org/2000/svg"
 width="512.000000pt" height="512.000000pt" viewBox="0 0 512.000000 512.000000"
 preserveAspectRatio="xMidYMid meet">
<metadata>
Created by potrace 1.14, written by Peter Selinger 2001-2017
</metadata>
<g transform="translate(0.000000,512.000000) scale(0.100000,-0.100000)"
fill="#000000" stroke="none">
<path d="M2979 5116 c-2 -2 -31 -6 -64 -10 -271 -28 -575 -132 -805 -273 -176
-109 -380 -284 -503 -433 -81 -99 -195 -276 -251 -392 -80 -166 -150 -379
-171 -523 -4 -22 -8 -51 -11 -65 -18 -109 -24 -337 -11 -470 30 -313 132 -608
306 -884 l62 -99 -114 -114 -115 -114 -41 22 c-135 70 -275 -72 -204 -207 l20
-39 -440 -335 c-243 -184 -467 -360 -498 -391 -96 -94 -140 -205 -134 -341 3
-89 10 -119 43 -187 131 -270 491 -343 719 -147 22 20 93 105 157 188 170 224
318 418 414 543 47 61 103 136 126 167 22 32 46 58 52 58 6 0 25 -7 42 -16 58
-29 135 -18 175 24 51 53 60 122 27 187 l-20 40 113 113 114 113 94 -59 c203
-128 429 -224 634 -268 262 -58 562 -64 795 -18 41 9 89 18 105 21 71 12 300
95 405 146 96 47 323 184 340 206 3 3 28 24 55 45 85 67 247 236 325 341 193
258 341 607 376 890 3 22 9 67 13 100 9 67 7 389 -3 450 -26 159 -52 268 -96
405 -17 54 -54 139 -99 230 -254 508 -689 867 -1246 1029 -38 11 -82 22 -98
25 -15 3 -53 10 -85 15 -31 6 -75 13 -97 16 -44 7 -401 16 -406 11z"/>
</g>
</svg>
